#!OML:ASF F:\VICON\USERDATA\INSTALL\rory3\rory3.ASF
:FULLY-SPECIFIED
:DEGREES
3152
root -2.57736 18.6304 1.15975 -345.073 -50.7504 354.387
lowerback 11.8113 -2.33868 -4.93309
upperback 4.29626 -3.91937 -4.75565
thorax -2.12142 -2.00254 -1.65584
lowerneck -9.3404 11.2527 -2.98303
upperneck 24.9348 15.5767 1.20464
head 9.01372 6.93619 2.42783
rclavicle 1.19271e-014 3.81667e-014
rhumerus -2.74295 33.2304 -88.799
rradius 102.612
rwrist -23.9305
rhand -39.0218 8.54416
rfingers 7.12502
rthumb -12.0247 -21.0904
lclavicle 1.19271e-014 3.81667e-014
lhumerus -0.228884 -11.3481 85.8371
lradius 35.916
lwrist -2.74513
lhand -31.1337 13.8437
lfingers 7.12502
lthumb -4.41226 43.7777
rfemur -30.4192 22.9387 13.9449
rtibia 24.2702
rfoot -7.93105 -4.16164
rtoes -4.82712
lfemur -19.7259 -13.3182 -8.04403
ltibia 32.8752
lfoot -9.8745 -19.0118
ltoes 11.3449
3153
root -2.64885 18.6369 1.15216 -345.038 -50.4005 354.486
lowerback 11.8061 -2.35631 -4.87701
upperback 4.21324 -3.92975 -4.58955
thorax -2.1974 -2.00354 -1.51022
lowerneck -9.43282 11.2825 -3.01249
upperneck 25.0957 15.6323 1.22529
head 9.08131 6.9539 2.45807
rclavicle 2.62396e-014 -4.13472e-014
rhumerus -2.90751 33.0864 -88.6477
rradius 102.705
rwrist -24.9254
rhand -38.6707 7.93458
rfingers 7.12502
rthumb -11.6861 -21.7195
lclavicle 2.62396e-014 -4.13472e-014
lhumerus -1.50498 -11.6961 85.9163
lradius 36.8717
lwrist -1.86457
lhand -31.6651 14.0038
lfingers 7.12502
lthumb -4.92534 43.9266
rfemur -30.3217 22.9198 14.0917
rtibia 24.3251
rfoot -8.12309 -4.31194
rtoes -4.78198
lfemur -19.9679 -13.0821 -7.88097
ltibia 33.1718
lfoot -9.24357 -19.3544
ltoes 11.6602
3154
root -2.71904 18.6438 1.14619 -344.946 -50.0771 354.522
lowerback 11.7897 -2.36854 -4.80322
upperback 4.11201 -3.92808 -4.36856
thorax -2.28363 -1.99787 -1.31896
lowerneck -9.45279 11.3068 -3.09269
upperneck 25.1863 15.7283 1.05731
head 9.12475 6.96869 2.43096
rclavicle 1.24837e-013 -7.15625e-014
rhumerus -3.05298 32.9508 -88.3808
rradius 102.805
rwrist -25.9622
rhand -37.9234 7.1784
rfingers 7.12502
rthumb -10.9654 -22.5152
lclavicle 1.24837e-013 -7.15625e-014
lhumerus -2.79447 -11.744 86.176
lradius 37.86
lwrist -1.38252
lhand -31.7522 14.3519
lfingers 7.12502
lthumb -5.00951 44.2727
rfemur -30.2394 22.6709 14.3551
rtibia 24.3708
rfoot -8.19715 -4.24159
rtoes -4.39795
lfemur -20.2503 -13.0173 -7.62226
ltibia 33.5115
lfoot -8.04534 -19.694
ltoes 14.0628
3155
root -2.78889 18.6554 1.1437 -345.13 -49.8461 354.746
lowerback 11.8223 -2.30308 -4.75524
upperback 4.06112 -3.83582 -4.27204
thorax -2.35199 -1.94943 -1.25423
lowerneck -9.46166 11.258 -3.14988
upperneck 25.3205 15.6899 1.01394
head 9.17393 6.93505 2.42902
rclavicle 4.69132e-014 6.36111e-014
rhumerus -3.23764 32.5988 -88.1503
rradius 102.94
rwrist -26.9841
rhand -37.1022 6.54201
rfingers 7.12502
rthumb -10.1732 -23.192
lclavicle 4.69132e-014 6.36111e-014
lhumerus -4.07591 -11.7704 86.4611
lradius 38.9502
lwrist -1.05455
lhand -32.0315 14.6956
lfingers 7.12502
lthumb -5.27917 44.6098
rfemur -30.0088 22.5313 14.5043
rtibia 24.4044
rfoot -8.2347 -4.26182
rtoes -4.1646
lfemur -20.3735 -13.0297 -7.60158
ltibia 33.8941
lfoot -7.39669 -19.6855
ltoes 13.3764
3156
root -2.85775 18.6667 1.14593 -345.584 -49.7416 355.092
lowerback 11.8878 -2.18184 -4.66414
upperback 4.12852 -3.67118 -4.33048
thorax -2.32866 -1.86949 -1.38647
lowerneck -9.65703 11.196 -3.17606
upperneck 25.5195 15.5863 1.20541
head 9.26109 6.89577 2.50793
rclavicle -1.90833e-014 5.40694e-014
rhumerus -3.36334 32.1308 -88.0283
rradius 103.09
rwrist -27.921
rhand -36.6934 6.32834
rfingers 7.12502
rthumb -9.77881 -23.4246
lclavicle -1.90833e-014 5.40694e-014
lhumerus -5.23255 -11.9123 86.6178
lradius 40.0903
lwrist -0.757549
lhand -32.7471 14.9918
lfingers 7.12502
lthumb -5.97009 44.8877
rfemur -29.565 22.4712 14.6119
rtibia 24.427
rfoot -8.33242 -4.26109
rtoes -4.07583
lfemur -20.2707 -12.8227 -7.81103
ltibia 34.3218
lfoot -7.05717 -19.6963
ltoes 11.9054
3157
root -2.92578 18.6763 1.15023 -345.9 -49.5847 355.345
lowerback 11.8134 -2.15595 -4.49718
upperback 4.21546 -3.60891 -4.34561
thorax -2.20926 -1.84124 -1.50882
lowerneck -9.77072 11.2339 -3.16398
upperneck 25.5241 15.6623 1.14941
head 9.28862 6.92607 2.50434
rclavicle -1.98785e-014 1.43125e-014
rhumerus -3.34952 31.9087 -87.8269
rradius 103.243
rwrist -28.9049
rhand -36.5139 5.86416
rfingers 7.12502
rthumb -9.60561 -23.8969
lclavicle -1.98785e-014 1.43125e-014
lhumerus -6.31662 -11.7916 86.7505
lradius 41.2033
lwrist -0.421885
lhand -33.9087 15.0395
lfingers 7.12502
lthumb -7.09148 44.9007
rfemur -29.202 22.3437 14.7793
rtibia 24.4963
rfoot -8.44991 -4.22742
rtoes -3.69283
lfemur -20.3066 -12.6164 -7.88603
ltibia 34.7951
lfoot -6.22375 -19.8013
ltoes 12.9529
3158
root -2.99334 18.6871 1.15389 -345.998 -49.3288 355.509
lowerback 11.5772 -2.16961 -4.24371
upperback 4.25018 -3.57712 -4.32061
thorax -2.0587 -1.82649 -1.63884
lowerneck -9.71857 11.2677 -3.11744
upperneck 25.4462 15.7515 0.930974
head 9.27544 6.95279 2.42957
rclavicle 1.74931e-014 -3.81667e-014
rhumerus -3.31488 31.5683 -87.6183
rradius 103.336
rwrist -30.0866
rhand -35.9702 5.14159
rfingers 7.12502
rthumb -9.08106 -24.6429
lclavicle 1.74931e-014 -3.81667e-014
lhumerus -7.31563 -11.5033 86.9282
lradius 42.1828
lwrist -0.300839
lhand -34.7968 15.0556
lfingers 7.12502
lthumb -7.94867 44.8861
rfemur -29.0295 22.2121 14.9313
rtibia 24.6065
rfoot -8.55646 -4.24269
rtoes -3.03359
lfemur -20.5474 -12.3882 -7.85164
ltibia 35.3042
lfoot -5.47399 -19.8656
ltoes 13.0113
